<?xml version="1.0" encoding="utf-8"?>
<!-- Generator: Adobe Illustrator 22.1.0, SVG Export Plug-In . SVG Version: 6.00 Build 0)  -->
<svg version="1.1" id="trace" xmlns="http://www.w3.org/2000/svg" xmlns:xlink="http://www.w3.org/1999/xlink" x="0px" y="0px"
	 viewBox="0 0 665.1 350" style="enable-background:new 0 0 665.1 350;" xml:space="preserve">
<style type="text/css">
	.st0{fill:#FFFFFF;}
	.st1{font-family:'Copperplate';}
	.st2{font-size:45px;}
	.st3{fill:none;}
	.st4{font-family:'BrushScriptMT';}
	.st5{font-size:60px;}
</style>
<g>
	<g>
		<path class="st0" d="M248.1,219.1c0,0,0.4,16.3-20.7,15.5c-21.1-0.8-62.5-36-62.5-36s-24.1-18.4-45.4-30.9
			c0,0,31.2-26.5,51.8-60.6c0,0,67-18.7,92.7-67.8c0,0,12.7-22.5-17.3-18c-29.9,4.5-55.1,29.3-55.1,29.3s-26.4,26.2-38,55.4
			c0,0-41.9,4.2-62.7-7.9C70.1,86.1,76.8,70.4,76.8,70.4s8-22.9,44.1-25.6c36.1-2.7,44.7,11.6,44.7,11.6s2.8,2.5,2.9-0.1
			c0,0-7.9-17.1-38.4-19.6c-30.5-2.5-49.4,16.9-49.4,16.9s-17.5,17.2-7.5,34.1s37.2,21.1,37.2,21.1s23.1,3.3,39.9,1.2
			c0,0-6.2,23.4-36.3,54.9c0,0-28.6-16-55-15c-26.4,1-39.6,17.4-39.6,17.4s-15,19,5.2,31.9c20.2,12.9,58.4-7.1,58.4-7.1
			s10.9-5.2,25-15.5c0,0,28.1,17.1,60.5,46.5c32.4,29.5,65.5,17.2,65.5,17.2s19.5-7.6,18.4-21.7
			C252.4,218.7,249.8,213.6,248.1,219.1z M218.5,42.5c0,0,22.3-20.1,36.5-18.6c14.2,1.5,3.4,17,3.4,17
			c-34.1,51.3-83.7,61.2-83.7,61.2C203.1,56.6,218.5,42.5,218.5,42.5z M52.9,198.1c-29.5,3.8-33.7-12.4-33.7-12.4
			s-7.5-17.9,20.9-26.5c28.4-8.5,62.9,14.7,62.9,14.7S82.3,194.2,52.9,198.1z"/>
		<path class="st0" d="M269.4,167.6c0,0-10.3,17.7-17.2,23.6c-6.9,5.9-9.6,2-9.6,2s-3.9-2,2-14c5.9-12,17.8-36.4,17.8-36.4
			s15.1-28.2,18.6-31.7c0,0-0.5-1.4-2.4,0c0,0-10.7,8.1-11.9-0.6h-2.3l-7.8,15.1c0,0,1.3-12.2-6.3-13c-7.6-0.8-10.7,1.1-10.7,1.1
			s-19.9,7.6-29.2,19.4c0,0-10,9.9-17.9,29.8c-7.9,19.9,1.6,33.4,1.6,33.4s2.6,7.2,12.5-1.1c9.9-8.3,27.5-28.2,38-45.6
			c0,0-10.8,24.4-8,39.9s17,5.1,17,5.1s8.3-6.3,19.1-25.7C272.7,168.9,273.2,164,269.4,167.6z M215.4,182.6c0,0-13.3,15.6-17.6,11.6
			s0-12.8,0-12.8s12.9-24.9,26.9-44.8c1.4-2,2.8-3.9,4.2-5.8c15.6-20.4,22-15.6,22-15.6c4,0.2,2.2,10.8,2.2,10.8s-0.4,0.8-4.6,10.8
			C244.4,146.8,215.4,182.6,215.4,182.6z"/>
		<path class="st0" d="M536.8,137c0,0,15.1-28.2,18.6-31.7c0,0-0.5-1.4-2.4,0c0,0-10.7,8.1-11.9-0.6h-2.3l-7.8,15.1
			c0,0,1.3-12.2-6.3-13c-7.6-0.8-10.7,1.1-10.7,1.1s-19.9,7.6-29.2,19.4c0,0-10,9.9-17.9,29.8c-7.9,19.9,1.6,33.4,1.6,33.4
			s2.6,7.2,12.5-1.1c9.9-8.3,27.5-28.2,38-45.6c0,0-10.8,24.4-8,39.9c2.8,15.5,17,5.1,17,5.1s8.3-6.3,19.1-25.7c0,0,0.5-4.9-3.4-1.2
			c0,0-10.3,17.7-17.2,23.6s-9.6,2-9.6,2s-3.9-2,2-14C524.9,161.3,536.8,137,536.8,137z M489.9,176.7c0,0-13.3,15.6-17.6,11.6
			s0-12.8,0-12.8s12.9-24.9,26.9-44.8c1.4-2,2.8-3.9,4.2-5.8c15.6-20.4,22-15.6,22-15.6c4,0.2,2.2,10.8,2.2,10.8s-0.4,0.8-4.6,10.8
			C518.9,141,489.9,176.7,489.9,176.7z"/>
		<path class="st0" d="M356,112.1c0,0-4.5-5.3-11.7,1.3c-7.3,6.6-25.8,28.8-25.8,28.8l-12.6,17.9l28-53l16.6-31.8
			c0,0,22.8-50.4,51.9-53.6c0,0,8.1-1.9,11.5,4.7s10.7,1.5,10.7,1.5s8.3-7.9-3.6-10.5c-12-2.6-30.5,4.5-30.5,4.5
			s-26.1,7.7-45.1,36.7c-19,29-74.3,135.2-74.3,135.2s-1,4.2,5.2,0c6.2-4.2,7.7,1.9,7.7,1.9s2.5,2.7,5.1-2.8
			c2.5-5.5,18.3-30.6,18.3-30.6s22.6-31.6,37.3-45c0,0,12.5-10.3,8.8,3.5c0,0-7,15.7-20.5,31c0,0-12.4,16.6-11,28s7.6,15,7.6,15
			s5.4,4.1,11.8-2s11.2-10.9,18.3-21.5c0,0,2.4-2.7,0.4-3.8c-2-1.1-3.6,1.6-3.6,1.6s-7,10.3-14.5,19.2c-7.5,9-11.3,1.1-11.3,1.1
			s-2.6-4.3,11.7-22c14.3-17.7,19-34,19-34S364.3,115.7,356,112.1z"/>
		<path class="st0" d="M451.3,167.8c-1.9-0.9-3.2,2.4-3.2,2.4l-3.3,5.4c-11.2,16.1-15.3,14.2-15.3,14.2s-15,1.4,4.1-26.5
			s18-34,18-34c1.7-19-5.9-19.5-5.9-19.5c-4.5-3.3-12.3,3.8-12.3,3.8c-8.8,6-33.7,42.2-33.7,42.2c13.5-27.1,9.7-37.5,9.7-37.5
			s-3.3-13.3-14.3-6.6c-11.1,6.7-19.2,22.1-19.2,22.1s-2.2,11.4,6.4-3.1s13.3-15.9,13.3-15.9s10.6-5.7,7.6,5
			c-3.1,10.8-14.5,31.8-14.5,31.8s-22.2,37.1-24.3,40.5c-2.1,3.5,3.1,0.9,3.1,0.9s8.8-3.8,10.4-0.2c1.6,3.5,3.6-0.2,3.6-0.2
			c19.2-37.2,48.5-71.7,48.5-71.7s8.8-10.8,14-8.5s-4.9,16.9-4.9,16.9s-13.1,19-19.1,29.9s-1.5,25.3-1.5,25.3s5.9,13.7,15.9,7.2
			c10-6.5,16.9-19.8,16.9-19.8S453.2,168.7,451.3,167.8z"/>
		<path class="st0" d="M575.6,116.3c0,0,15.9-15.2,22.3-32c6.4-16.8-2.9-19.9-2.9-19.9s-7.4-3.6-13.9,4.5
			c-6.4,8.1-3.3,14.7-3.3,14.7s-1.2,1.9,5.5,4s1.7,9.7,1.7,9.7c-6.2,12.6-16.3,18-16.3,18s-2.1,0.7-1.6,4.2
			C567.8,122.9,575.6,116.3,575.6,116.3z"/>
		<path class="st0" d="M628.7,101.1c-24.3,13.8-38.5,30.5-38.5,30.5c-2,3.6,3.6,0.5,3.6,0.5c6.1-7,20.4-18.2,20.4-18.2l-2.8,5.8
			c-4,10.1-1,16.9-1,16.9c2.8,22.3-1.1,29.7-1.1,29.7s-2.9,11.2-13.1,17c-10.2,5.8-19.1-0.1-19.1-0.1s-8.1-7.1-4.5-15.1
			c3.6-8,7.9-4.7,7.9-4.7c3.6,3.6,7.4,2.2,7.4,2.2c6.8-2,7.4-9.5,7.4-9.5s-1.3-10.6-11.7-7c-10.4,3.6-14.5,12.4-14.5,12.4
			s-4.2,11.8,1.2,19.5c5.4,7.7,13.3,9,13.3,9s14,2.9,27-4.9s16.1-16.7,16.1-16.7s3.1-9.9-2.2-17.9c-5.2-8-7.7-14-7.7-14
			s-5.1-10.5,0.9-20.4c6-9.9,11.6-10.8,11.6-10.8s2.6-2.6,9,3.2c6.4,5.8,12.5-7.4,12.5-7.4S653,87.3,628.7,101.1z"/>
	</g>
	<text transform="matrix(1 0 0 1 301.7889 245.9022)" class="st0 st1 st2">CHOCOLATES</text>
	<rect x="94.3" y="285.2" class="st3" width="476.4" height="47.9"/>
	<text transform="matrix(1 0 0 1 94.3329 319.7679)" class="st0 st4 st5">Handcrafted. Heartfelt.</text>
</g>
</svg>
